<svg width="286" height="18" viewBox="0 0 286 18" fill="none" xmlns="http://www.w3.org/2000/svg">
<path d="M28.9931 14.21C27.6024 14.21 26.4171 13.7387 25.4371 12.796C24.4664 11.8533 23.9811 10.6027 23.9811 9.044C23.9811 7.49467 24.4757 6.244 25.4651 5.292C26.4544 4.34 27.6257 3.864 28.9791 3.864C30.1737 3.864 31.1537 4.16733 31.9191 4.774C32.6937 5.38067 33.2024 6.15067 33.4451 7.084L31.8631 7.616C31.7044 6.972 31.3824 6.44933 30.8971 6.048C30.4117 5.64667 29.7724 5.446 28.9791 5.446C28.0924 5.446 27.3224 5.76333 26.6691 6.398C26.0251 7.02333 25.7031 7.90533 25.7031 9.044C25.7031 10.1547 26.0251 11.0273 26.6691 11.662C27.3131 12.2873 28.0877 12.6 28.9931 12.6C29.7677 12.6 30.4071 12.39 30.9111 11.97C31.4151 11.55 31.7604 11.032 31.9471 10.416L33.4871 10.92C33.2444 11.844 32.7311 12.6233 31.9471 13.258C31.1724 13.8927 30.1877 14.21 28.9931 14.21ZM36.4443 12.18C36.8177 12.5627 37.2703 12.754 37.8023 12.754C38.3343 12.754 38.7823 12.5627 39.1463 12.18C39.5197 11.7973 39.7063 11.2653 39.7063 10.584C39.7063 9.912 39.5197 9.38933 39.1463 9.016C38.7823 8.63333 38.3343 8.442 37.8023 8.442C37.2703 8.442 36.8177 8.63333 36.4443 9.016C36.0803 9.38933 35.8983 9.912 35.8983 10.584C35.8983 11.256 36.0803 11.788 36.4443 12.18ZM37.8023 6.972C38.829 6.972 39.6737 7.31267 40.3363 7.994C41.0083 8.67533 41.3443 9.53867 41.3443 10.584C41.3443 11.6293 41.0083 12.4973 40.3363 13.188C39.6737 13.8693 38.829 14.21 37.8023 14.21C36.785 14.21 35.9403 13.8693 35.2683 13.188C34.6057 12.4973 34.2743 11.6293 34.2743 10.584C34.2743 9.53867 34.6057 8.67533 35.2683 7.994C35.9403 7.31267 36.785 6.972 37.8023 6.972ZM44.5238 14H42.9138V7.182H44.4678V8.05C44.6544 7.714 44.9344 7.45267 45.3078 7.266C45.6904 7.07933 46.0824 6.986 46.4838 6.986C46.9411 6.986 47.3518 7.08867 47.7158 7.294C48.0798 7.49933 48.3504 7.798 48.5278 8.19C49.0038 7.38733 49.7411 6.986 50.7398 6.986C51.4118 6.986 51.9811 7.20533 52.4478 7.644C52.9144 8.08267 53.1478 8.72667 53.1478 9.576V14H51.5798V9.842C51.5798 9.422 51.4678 9.086 51.2438 8.834C51.0291 8.57267 50.7024 8.442 50.2638 8.442C49.8438 8.442 49.5031 8.58667 49.2418 8.876C48.9804 9.16533 48.8498 9.52467 48.8498 9.954V14H47.2538V9.842C47.2538 9.422 47.1418 9.086 46.9178 8.834C46.7031 8.57267 46.3764 8.442 45.9378 8.442C45.5084 8.442 45.1631 8.58667 44.9018 8.876C44.6498 9.156 44.5238 9.51533 44.5238 9.954V14ZM56.7464 16.66H55.1364V7.182H56.7044V8.106C56.8818 7.798 57.1618 7.54133 57.5444 7.336C57.9271 7.13067 58.3704 7.028 58.8744 7.028C59.8544 7.028 60.6244 7.364 61.1844 8.036C61.7444 8.69867 62.0244 9.548 62.0244 10.584C62.0244 11.62 61.7304 12.4787 61.1424 13.16C60.5544 13.832 59.7798 14.168 58.8184 14.168C58.3518 14.168 57.9364 14.0793 57.5724 13.902C57.2084 13.7247 56.9331 13.5007 56.7464 13.23V16.66ZM60.4004 10.584C60.4004 9.94933 60.2324 9.44067 59.8964 9.058C59.5604 8.666 59.1171 8.47 58.5664 8.47C58.0251 8.47 57.5818 8.666 57.2364 9.058C56.9004 9.44067 56.7324 9.94933 56.7324 10.584C56.7324 11.228 56.9004 11.746 57.2364 12.138C57.5818 12.53 58.0251 12.726 58.5664 12.726C59.1078 12.726 59.5464 12.53 59.8824 12.138C60.2278 11.746 60.4004 11.228 60.4004 10.584ZM63.1656 12.152C63.1656 11.5733 63.3523 11.1113 63.7256 10.766C64.1083 10.4113 64.6076 10.1873 65.2236 10.094L66.9736 9.828C67.3096 9.78133 67.4776 9.618 67.4776 9.338C67.4776 9.03 67.3703 8.78267 67.1556 8.596C66.941 8.4 66.619 8.302 66.1896 8.302C65.779 8.302 65.4523 8.41867 65.2096 8.652C64.967 8.876 64.827 9.17 64.7896 9.534L63.3056 9.198C63.371 8.582 63.665 8.05933 64.1876 7.63C64.7103 7.19133 65.373 6.972 66.1756 6.972C67.165 6.972 67.893 7.21 68.3596 7.686C68.8356 8.162 69.0736 8.77333 69.0736 9.52V12.908C69.0736 13.356 69.1016 13.72 69.1576 14H67.6456C67.599 13.86 67.5756 13.5707 67.5756 13.132C67.1276 13.8507 66.4276 14.21 65.4756 14.21C64.785 14.21 64.225 14.0093 63.7956 13.608C63.3756 13.1973 63.1656 12.712 63.1656 12.152ZM65.7836 12.936C66.2876 12.936 66.6936 12.8007 67.0016 12.53C67.319 12.25 67.4776 11.7973 67.4776 11.172V10.864L65.6996 11.13C65.093 11.2327 64.7896 11.5407 64.7896 12.054C64.7896 12.2967 64.8783 12.5067 65.0556 12.684C65.233 12.852 65.4756 12.936 65.7836 12.936ZM72.6608 10.066V14H71.0368V7.182H72.6188V8.092C72.8335 7.71867 73.1181 7.44333 73.4728 7.266C73.8368 7.07933 74.2241 6.986 74.6348 6.986C75.4375 6.986 76.0488 7.238 76.4688 7.742C76.8888 8.246 77.0988 8.89467 77.0988 9.688V14H75.4748V9.968C75.4748 9.51067 75.3628 9.14667 75.1388 8.876C74.9148 8.596 74.5601 8.456 74.0748 8.456C73.6268 8.456 73.2768 8.61 73.0248 8.918C72.7821 9.21667 72.6608 9.59933 72.6608 10.066ZM81.0795 16.758H79.3435L80.9815 13.188L78.0695 7.182H79.9035L81.8635 11.494L83.6975 7.182H85.4195L81.0795 16.758ZM93.9708 12.068C93.6161 12.068 93.3175 11.9933 93.0748 11.844C92.8321 11.6853 92.6735 11.4707 92.5988 11.2C92.4121 11.4893 92.1695 11.7133 91.8708 11.872C91.5815 12.0213 91.2781 12.096 90.9608 12.096C90.3448 12.096 89.8361 11.872 89.4348 11.424C89.0335 10.976 88.8328 10.3973 88.8328 9.688C88.8328 8.77333 89.1035 8.01267 89.6448 7.406C90.1861 6.79 90.8395 6.482 91.6048 6.482C91.9128 6.482 92.1975 6.55667 92.4588 6.706C92.7295 6.846 92.9161 7.056 93.0188 7.336L93.1448 6.664H94.3768L93.6348 10.136C93.6068 10.276 93.5928 10.374 93.5928 10.43C93.5928 10.7847 93.7515 10.962 94.0688 10.962C94.4421 10.962 94.7735 10.7147 95.0628 10.22C95.3615 9.72533 95.5108 9.13733 95.5108 8.456C95.5108 7.448 95.1608 6.622 94.4608 5.978C93.7608 5.334 92.8508 5.012 91.7308 5.012C90.5175 5.012 89.5141 5.41333 88.7208 6.216C87.9275 7.01867 87.5308 8.064 87.5308 9.352C87.5308 10.5747 87.9181 11.578 88.6928 12.362C89.4768 13.1367 90.5315 13.524 91.8568 13.524C92.8741 13.524 93.7748 13.2253 94.5588 12.628L95.1888 13.482C94.8061 13.8367 94.3021 14.1213 93.6768 14.336C93.0515 14.5507 92.4448 14.658 91.8568 14.658C90.2048 14.658 88.8561 14.168 87.8108 13.188C86.7655 12.208 86.2428 10.9293 86.2428 9.352C86.2428 7.74667 86.7701 6.43067 87.8248 5.404C88.8888 4.37733 90.1861 3.864 91.7168 3.864C93.1448 3.864 94.3348 4.30267 95.2868 5.18C96.2481 6.048 96.7288 7.13533 96.7288 8.442C96.7288 9.478 96.4535 10.3413 95.9028 11.032C95.3615 11.7133 94.7175 12.0587 93.9708 12.068ZM92.7108 8.848C92.7108 8.47467 92.6175 8.18533 92.4308 7.98C92.2535 7.76533 91.9968 7.658 91.6608 7.658C91.2035 7.658 90.8348 7.85867 90.5548 8.26C90.2748 8.652 90.1348 9.09533 90.1348 9.59C90.1348 9.99133 90.2235 10.318 90.4008 10.57C90.5781 10.8127 90.8488 10.934 91.2128 10.934C91.6421 10.934 91.9921 10.738 92.2628 10.346C92.5428 9.954 92.6921 9.45467 92.7108 8.848ZM97.6855 14.378L99.1835 13.986C99.2395 14.4153 99.4215 14.7653 99.7295 15.036C100.047 15.316 100.434 15.456 100.891 15.456C102.179 15.456 102.823 14.7747 102.823 13.412V12.698C102.665 12.9873 102.413 13.2253 102.067 13.412C101.722 13.5987 101.316 13.692 100.849 13.692C99.9348 13.692 99.1788 13.3793 98.5815 12.754C97.9935 12.1287 97.6995 11.3353 97.6995 10.374C97.6995 9.45 97.9935 8.666 98.5815 8.022C99.1695 7.378 99.9255 7.056 100.849 7.056C101.848 7.056 102.52 7.38733 102.865 8.05V7.182H104.433V13.356C104.433 14.364 104.149 15.1993 103.579 15.862C103.01 16.534 102.128 16.87 100.933 16.87C100.056 16.87 99.3188 16.632 98.7215 16.156C98.1242 15.68 97.7788 15.0873 97.6855 14.378ZM101.115 12.306C101.638 12.306 102.058 12.1333 102.375 11.788C102.702 11.4333 102.865 10.962 102.865 10.374C102.865 9.79533 102.702 9.33333 102.375 8.988C102.049 8.63333 101.629 8.456 101.115 8.456C100.593 8.456 100.163 8.63333 99.8275 8.988C99.5008 9.33333 99.3375 9.79533 99.3375 10.374C99.3375 10.962 99.5008 11.4333 99.8275 11.788C100.154 12.1333 100.583 12.306 101.115 12.306ZM108.03 14H106.42V7.182H107.974V8.05C108.16 7.714 108.44 7.45267 108.814 7.266C109.196 7.07933 109.588 6.986 109.99 6.986C110.447 6.986 110.858 7.08867 111.222 7.294C111.586 7.49933 111.856 7.798 112.034 8.19C112.51 7.38733 113.247 6.986 114.246 6.986C114.918 6.986 115.487 7.20533 115.954 7.644C116.42 8.08267 116.654 8.72667 116.654 9.576V14H115.086V9.842C115.086 9.422 114.974 9.086 114.75 8.834C114.535 8.57267 114.208 8.442 113.77 8.442C113.35 8.442 113.009 8.58667 112.748 8.876C112.486 9.16533 112.356 9.52467 112.356 9.954V14H110.76V9.842C110.76 9.422 110.648 9.086 110.424 8.834C110.209 8.57267 109.882 8.442 109.444 8.442C109.014 8.442 108.669 8.58667 108.408 8.876C108.156 9.156 108.03 9.51533 108.03 9.954V14ZM118.222 12.152C118.222 11.5733 118.409 11.1113 118.782 10.766C119.165 10.4113 119.664 10.1873 120.28 10.094L122.03 9.828C122.366 9.78133 122.534 9.618 122.534 9.338C122.534 9.03 122.427 8.78267 122.212 8.596C121.998 8.4 121.676 8.302 121.246 8.302C120.836 8.302 120.509 8.41867 120.266 8.652C120.024 8.876 119.884 9.17 119.846 9.534L118.362 9.198C118.428 8.582 118.722 8.05933 119.244 7.63C119.767 7.19133 120.43 6.972 121.232 6.972C122.222 6.972 122.95 7.21 123.416 7.686C123.892 8.162 124.13 8.77333 124.13 9.52V12.908C124.13 13.356 124.158 13.72 124.214 14H122.702C122.656 13.86 122.632 13.5707 122.632 13.132C122.184 13.8507 121.484 14.21 120.532 14.21C119.842 14.21 119.282 14.0093 118.852 13.608C118.432 13.1973 118.222 12.712 118.222 12.152ZM120.84 12.936C121.344 12.936 121.75 12.8007 122.058 12.53C122.376 12.25 122.534 11.7973 122.534 11.172V10.864L120.756 11.13C120.15 11.2327 119.846 11.5407 119.846 12.054C119.846 12.2967 119.935 12.5067 120.112 12.684C120.29 12.852 120.532 12.936 120.84 12.936ZM127.703 14H126.093V7.182H127.703V14ZM126.149 5.53C125.944 5.32467 125.841 5.07733 125.841 4.788C125.841 4.49867 125.944 4.25133 126.149 4.046C126.355 3.83133 126.602 3.724 126.891 3.724C127.19 3.724 127.442 3.82667 127.647 4.032C127.853 4.23733 127.955 4.48933 127.955 4.788C127.955 5.07733 127.853 5.32467 127.647 5.53C127.442 5.73533 127.19 5.838 126.891 5.838C126.602 5.838 126.355 5.73533 126.149 5.53ZM131.423 14H129.799V3.864H131.423V14ZM133.686 13.762C133.472 13.538 133.364 13.2673 133.364 12.95C133.364 12.6327 133.472 12.362 133.686 12.138C133.91 11.914 134.181 11.802 134.498 11.802C134.816 11.802 135.086 11.914 135.31 12.138C135.534 12.362 135.646 12.6327 135.646 12.95C135.646 13.2673 135.534 13.538 135.31 13.762C135.086 13.9767 134.816 14.084 134.498 14.084C134.181 14.084 133.91 13.9767 133.686 13.762ZM140.354 8.47C139.832 8.47 139.388 8.66133 139.024 9.044C138.66 9.41733 138.478 9.93067 138.478 10.584C138.478 11.2467 138.66 11.7693 139.024 12.152C139.398 12.5347 139.85 12.726 140.382 12.726C140.858 12.726 141.236 12.6 141.516 12.348C141.806 12.0867 141.997 11.7927 142.09 11.466L143.518 11.984C143.332 12.5907 142.968 13.1133 142.426 13.552C141.894 13.9907 141.213 14.21 140.382 14.21C139.384 14.21 138.544 13.8647 137.862 13.174C137.19 12.4833 136.854 11.62 136.854 10.584C136.854 9.53867 137.186 8.67533 137.848 7.994C138.52 7.31267 139.351 6.972 140.34 6.972C141.19 6.972 141.88 7.19133 142.412 7.63C142.954 8.06867 143.304 8.596 143.462 9.212L142.006 9.744C141.913 9.38933 141.731 9.09067 141.46 8.848C141.199 8.596 140.83 8.47 140.354 8.47ZM146.53 12.18C146.904 12.5627 147.356 12.754 147.888 12.754C148.42 12.754 148.868 12.5627 149.232 12.18C149.606 11.7973 149.792 11.2653 149.792 10.584C149.792 9.912 149.606 9.38933 149.232 9.016C148.868 8.63333 148.42 8.442 147.888 8.442C147.356 8.442 146.904 8.63333 146.53 9.016C146.166 9.38933 145.984 9.912 145.984 10.584C145.984 11.256 146.166 11.788 146.53 12.18ZM147.888 6.972C148.915 6.972 149.76 7.31267 150.422 7.994C151.094 8.67533 151.43 9.53867 151.43 10.584C151.43 11.6293 151.094 12.4973 150.422 13.188C149.76 13.8693 148.915 14.21 147.888 14.21C146.871 14.21 146.026 13.8693 145.354 13.188C144.692 12.4973 144.36 11.6293 144.36 10.584C144.36 9.53867 144.692 8.67533 145.354 7.994C146.026 7.31267 146.871 6.972 147.888 6.972ZM154.61 14H153V7.182H154.554V8.05C154.74 7.714 155.02 7.45267 155.394 7.266C155.776 7.07933 156.168 6.986 156.57 6.986C157.027 6.986 157.438 7.08867 157.802 7.294C158.166 7.49933 158.436 7.798 158.614 8.19C159.09 7.38733 159.827 6.986 160.826 6.986C161.498 6.986 162.067 7.20533 162.534 7.644C163 8.08267 163.234 8.72667 163.234 9.576V14H161.666V9.842C161.666 9.422 161.554 9.086 161.33 8.834C161.115 8.57267 160.788 8.442 160.35 8.442C159.93 8.442 159.589 8.58667 159.328 8.876C159.066 9.16533 158.936 9.52467 158.936 9.954V14H157.34V9.842C157.34 9.422 157.228 9.086 157.004 8.834C156.789 8.57267 156.462 8.442 156.024 8.442C155.594 8.442 155.249 8.58667 154.988 8.876C154.736 9.156 154.61 9.51533 154.61 9.954V14ZM165.432 13.762C165.218 13.538 165.11 13.2673 165.11 12.95C165.11 12.6327 165.218 12.362 165.432 12.138C165.656 11.914 165.927 11.802 166.244 11.802C166.562 11.802 166.832 11.914 167.056 12.138C167.28 12.362 167.392 12.6327 167.392 12.95C167.392 13.2673 167.28 13.538 167.056 13.762C166.832 13.9767 166.562 14.084 166.244 14.084C165.927 14.084 165.656 13.9767 165.432 13.762ZM172.101 8.47C171.578 8.47 171.135 8.66133 170.771 9.044C170.407 9.41733 170.225 9.93067 170.225 10.584C170.225 11.2467 170.407 11.7693 170.771 12.152C171.144 12.5347 171.597 12.726 172.129 12.726C172.605 12.726 172.983 12.6 173.263 12.348C173.552 12.0867 173.743 11.7927 173.837 11.466L175.265 11.984C175.078 12.5907 174.714 13.1133 174.173 13.552C173.641 13.9907 172.959 14.21 172.129 14.21C171.13 14.21 170.29 13.8647 169.609 13.174C168.937 12.4833 168.601 11.62 168.601 10.584C168.601 9.53867 168.932 8.67533 169.595 7.994C170.267 7.31267 171.097 6.972 172.087 6.972C172.936 6.972 173.627 7.19133 174.159 7.63C174.7 8.06867 175.05 8.596 175.209 9.212L173.753 9.744C173.659 9.38933 173.477 9.09067 173.207 8.848C172.945 8.596 172.577 8.47 172.101 8.47ZM178.276 12.18C178.65 12.5627 179.102 12.754 179.634 12.754C180.166 12.754 180.614 12.5627 180.978 12.18C181.352 11.7973 181.538 11.2653 181.538 10.584C181.538 9.912 181.352 9.38933 180.978 9.016C180.614 8.63333 180.166 8.442 179.634 8.442C179.102 8.442 178.65 8.63333 178.276 9.016C177.912 9.38933 177.73 9.912 177.73 10.584C177.73 11.256 177.912 11.788 178.276 12.18ZM179.634 6.972C180.661 6.972 181.506 7.31267 182.168 7.994C182.84 8.67533 183.176 9.53867 183.176 10.584C183.176 11.6293 182.84 12.4973 182.168 13.188C181.506 13.8693 180.661 14.21 179.634 14.21C178.617 14.21 177.772 13.8693 177.1 13.188C176.438 12.4973 176.106 11.6293 176.106 10.584C176.106 9.53867 176.438 8.67533 177.1 7.994C177.772 7.31267 178.617 6.972 179.634 6.972ZM186.356 14H184.746V7.182H186.3V8.05C186.486 7.714 186.766 7.45267 187.14 7.266C187.522 7.07933 187.914 6.986 188.316 6.986C188.773 6.986 189.184 7.08867 189.548 7.294C189.912 7.49933 190.182 7.798 190.36 8.19C190.836 7.38733 191.573 6.986 192.572 6.986C193.244 6.986 193.813 7.20533 194.28 7.644C194.746 8.08267 194.98 8.72667 194.98 9.576V14H193.412V9.842C193.412 9.422 193.3 9.086 193.076 8.834C192.861 8.57267 192.534 8.442 192.096 8.442C191.676 8.442 191.335 8.58667 191.074 8.876C190.812 9.16533 190.682 9.52467 190.682 9.954V14H189.086V9.842C189.086 9.422 188.974 9.086 188.75 8.834C188.535 8.57267 188.208 8.442 187.77 8.442C187.34 8.442 186.995 8.58667 186.734 8.876C186.482 9.156 186.356 9.51533 186.356 9.954V14Z" fill="white"/>
<path d="M2.62828 6H13.0608C13.778 6 14.3648 6.585 14.3648 7.3V15.1C14.3648 15.815 13.778 16.4 13.0608 16.4H2.62828C1.91105 16.4 1.32422 15.815 1.32422 15.1V7.3C1.32422 6.585 1.91105 6 2.62828 6Z" stroke="white" stroke-linecap="round" stroke-linejoin="round"/>
<path d="M14.3648 7.2998L7.84452 11.8498L1.32422 7.2998" stroke="white" stroke-linecap="round" stroke-linejoin="round"/>
</svg>
